<svg width="19" height="17" viewBox="0 0 19 17" fill="none" xmlns="http://www.w3.org/2000/svg">
<path d="M16.4935 0.0195312C16.0035 0.0195312 15.6035 0.249531 15.1735 0.499531C14.7835 0.719531 14.3435 0.979531 13.7135 1.14953C13.2035 1.29953 12.7335 1.32953 12.4235 1.32953C12.4035 1.32953 12.3835 1.32953 12.3635 1.32953C11.3335 0.879531 10.2535 0.649531 9.14348 0.649531C8.03348 0.649531 6.94348 0.879531 5.92348 1.32953C5.90348 1.32953 5.88348 1.32953 5.86348 1.32953C5.56348 1.32953 5.09348 1.29953 4.57348 1.14953C3.94348 0.969531 3.50348 0.719531 3.11348 0.499531C2.69348 0.249531 2.29348 0.0195312 1.80348 0.0195312C1.62348 0.0195312 1.45348 0.0495313 1.29348 0.109531C1.20348 0.129531 1.11348 0.169531 1.03348 0.219531C0.963478 0.259531 0.893478 0.319531 0.823478 0.379531C0.413478 0.719531 0.183478 1.28953 0.153478 2.01953C0.103478 3.28953 0.663478 4.68953 1.64348 5.85953C1.31348 6.74953 1.14348 7.67953 1.14348 8.63953C1.14348 13.0495 4.73348 16.6395 9.14348 16.6395C13.5535 16.6395 17.1435 13.0495 17.1435 8.63953C17.1435 7.68953 16.9735 6.74953 16.6435 5.85953C17.6335 4.67953 18.1835 3.28953 18.1335 2.01953C18.1035 1.28953 17.8835 0.719531 17.4735 0.379531C17.4035 0.319531 17.3335 0.269531 17.2635 0.219531C17.1835 0.169531 17.0935 0.129531 17.0035 0.109531C16.8435 0.0495313 16.6735 0.0195312 16.4935 0.0195312Z" fill="white"/>
<path d="M13.9027 2.02341C12.5384 2.41277 11.25 2.18569 11.0605 2.02346L15.0395 5.91699C17.3132 3.97353 17.3132 1.53629 16.7448 1.04959C16.1763 0.562903 15.6079 1.53672 13.9027 2.02341Z" fill="#A63FBA"/>
<path d="M13.0605 4.05236L15.0392 5.91691C17.3129 3.97344 17.3129 1.5362 16.7445 1.04951C16.7167 1.02567 16.6888 1.00534 16.6609 0.988281C16.0881 2.07842 14.9558 3.33311 13.0605 4.05236Z" fill="#511156"/>
<path d="M4.21844 2.02341C5.58265 2.41277 6.87107 2.18569 7.06055 2.02346L3.0816 5.91699C0.807915 3.97353 0.807915 1.53629 1.37634 1.04959C1.94476 0.562903 2.51318 1.53672 4.21844 2.02341Z" fill="#A63FBA"/>
<path d="M5.06055 4.05236L3.08185 5.91691C0.808166 3.97344 0.808166 1.5362 1.37659 1.04951C1.40443 1.02567 1.43227 1.00534 1.46024 0.988281C2.03302 2.07842 3.16527 3.33311 5.06055 4.05236Z" fill="#511156"/>
<circle cx="9.06055" cy="8.55371" r="7" fill="#68047B"/>
<circle cx="9.06035" cy="8.55352" r="6.2" fill="#8B1DA0"/>
<ellipse cx="9.06055" cy="10.7534" rx="4.37891" ry="4.00049" fill="#A63FBA"/>
<path d="M15.0569 6.97266C13.8313 5.52295 11.6042 4.55371 9.06055 4.55371C6.51636 4.55371 4.28906 5.52344 3.06348 6.97363C3.76221 4.31494 6.18237 2.35352 9.0603 2.35352C11.9382 2.35352 14.3579 4.31445 15.0569 6.97266Z" fill="#A63FBA"/>
<path d="M12.2603 7.75391C11.3386 7.75391 10.5334 8.21717 10.0999 8.90676C10.0574 8.97434 10.0335 9.05032 10.0239 9.12806C10.0082 9.2547 10.1495 9.34734 10.2727 9.29124L10.3263 9.26688C10.423 9.22284 10.5084 9.1606 10.5846 9.08991C11.0862 8.62486 11.8178 8.31512 12.6431 8.26668L12.9482 8.2098C13.1482 8.17251 13.1668 7.9137 12.9739 7.85203L12.932 7.83864C12.7183 7.78342 12.493 7.75391 12.2603 7.75391Z" fill="#DC9CEA"/>
<path d="M11.7004 10.1519C11.7004 10.8217 11.3461 11.3647 10.9089 11.3647C10.4718 11.3647 10.1174 10.8217 10.1174 10.1519C10.1174 9.48199 10.4718 8.93896 10.9089 8.93896C11.3461 8.93896 11.7004 9.48199 11.7004 10.1519Z" fill="#DC9CEA"/>
<path d="M5.86024 7.75391C6.78194 7.75391 7.5872 8.21717 8.02071 8.90676C8.06319 8.97434 8.08707 9.05032 8.09669 9.12806C8.11235 9.2547 7.97107 9.34734 7.84783 9.29124L7.7943 9.26688C7.69756 9.22284 7.61219 9.1606 7.53594 9.08991C7.03433 8.62486 6.30276 8.31512 5.47746 8.26668L5.17238 8.2098C4.97239 8.17251 4.95377 7.9137 5.14664 7.85203L5.18854 7.83864C5.40227 7.78342 5.62754 7.75391 5.86024 7.75391Z" fill="#DC9CEA"/>
<path d="M6.42015 10.1519C6.42015 10.8217 6.77452 11.3647 7.21165 11.3647C7.64879 11.3647 8.00316 10.8217 8.00316 10.1519C8.00316 9.48199 7.64879 8.93896 7.21165 8.93896C6.77452 8.93896 6.42015 9.48199 6.42015 10.1519Z" fill="#DC9CEA"/>
<path d="M12.3301 11.8788C12.4002 11.7311 12.1999 11.6355 12.0826 11.7495C11.3845 12.4283 10.2905 12.8655 9.06049 12.8655C7.8305 12.8655 6.73648 12.4283 6.03837 11.7495C5.92112 11.6355 5.72081 11.7311 5.79087 11.8788C6.29902 12.9505 7.57137 13.7102 9.06049 13.7102C10.5496 13.7102 11.8219 12.9505 12.3301 11.8788Z" fill="#DC9CEA"/>
<path d="M12.2603 7.55469C11.3386 7.55469 10.5334 8.01795 10.0999 8.70754C10.0574 8.77512 10.0335 8.8511 10.0239 8.92884C10.0082 9.05548 10.1495 9.14812 10.2727 9.09203L10.3263 9.06766C10.423 9.02362 10.5084 8.96138 10.5846 8.89069C11.0862 8.42564 11.8178 8.1159 12.6431 8.06746L12.9482 8.01058C13.1482 7.9733 13.1668 7.71448 12.9739 7.65281L12.932 7.63942C12.7183 7.5842 12.493 7.55469 12.2603 7.55469Z" fill="#380049"/>
<path d="M11.7004 9.95264C11.7004 10.6225 11.3461 11.1655 10.9089 11.1655C10.4718 11.1655 10.1174 10.6225 10.1174 9.95264C10.1174 9.28278 10.4718 8.73975 10.9089 8.73975C11.3461 8.73975 11.7004 9.28278 11.7004 9.95264Z" fill="#380049"/>
<path d="M5.86024 7.55469C6.78194 7.55469 7.5872 8.01795 8.02071 8.70754C8.06319 8.77512 8.08707 8.8511 8.09669 8.92884C8.11235 9.05548 7.97107 9.14812 7.84783 9.09203L7.7943 9.06766C7.69756 9.02362 7.61219 8.96138 7.53594 8.89069C7.03433 8.42564 6.30276 8.1159 5.47746 8.06746L5.17238 8.01058C4.97239 7.9733 4.95377 7.71448 5.14664 7.65281L5.18854 7.63942C5.40227 7.5842 5.62754 7.55469 5.86024 7.55469Z" fill="#380049"/>
<path d="M6.42015 9.95264C6.42015 10.6225 6.77452 11.1655 7.21165 11.1655C7.64879 11.1655 8.00316 10.6225 8.00316 9.95264C8.00316 9.28278 7.64879 8.73975 7.21165 8.73975C6.77452 8.73975 6.42015 9.28278 6.42015 9.95264Z" fill="#380049"/>
<path d="M12.3301 11.6796C12.4002 11.5318 12.1999 11.4363 12.0826 11.5503C11.3845 12.229 10.2905 12.6663 9.06049 12.6663C7.8305 12.6663 6.73648 12.229 6.03837 11.5503C5.92112 11.4363 5.72081 11.5318 5.79087 11.6796C6.29902 12.7513 7.57137 13.511 9.06049 13.511C10.5496 13.511 11.8219 12.7513 12.3301 11.6796Z" fill="#380049"/>
</svg>
