<svg width="18" height="17" viewBox="0 0 18 17" fill="none" xmlns="http://www.w3.org/2000/svg">
<path d="M12.462 16.9998C12.222 16.9998 11.972 16.9798 11.732 16.9298C11.692 16.9298 11.642 16.9198 11.602 16.9098L3.78203 15.1398C2.35203 14.8098 1.18203 13.7998 0.652028 12.4398C-0.247972 10.0898 0.292028 6.18981 0.562028 4.61981C0.632028 4.19981 0.822028 3.80981 1.10203 3.50981C1.20203 3.37981 1.33203 3.26981 1.47203 3.18981L4.95203 1.09981C5.16203 0.969812 5.40203 0.879812 5.65203 0.819812C7.36203 0.419812 11.612 -0.430188 14.242 0.359812C16.402 1.01981 17.792 3.11981 17.562 5.31981C17.562 5.39981 17.562 5.48981 17.542 5.56981L16.232 13.7698C16.222 13.8398 16.202 13.9098 16.182 13.9698C15.972 14.9598 15.372 15.8298 14.512 16.3898C13.882 16.7998 13.172 16.9998 12.442 16.9998H12.462Z" fill="white"/>
<path d="M5.47363 2.61522C5.53166 2.424 5.75283 2.34253 5.92465 2.30231C7.06221 2.03313 11.3637 1.10177 13.732 1.82058C15.4333 2.33694 16.4016 4.10873 15.8949 5.77821C15.3882 7.4477 13.5984 8.38239 11.8971 7.86603C9.52885 7.14722 6.47068 3.98209 5.67838 3.12716C5.55416 2.99709 5.42045 2.8039 5.47737 2.61636L5.47363 2.61522Z" fill="#33C4FF"/>
<path d="M13.9527 1.89609C15.1289 2.64948 15.7168 4.09836 15.2982 5.47743C14.7915 7.14692 13.0017 8.08161 11.3005 7.56525C11.0967 7.50339 10.8878 7.42342 10.6756 7.32836C8.57696 6.16108 6.3393 3.84033 5.67838 3.12716C5.55416 2.99709 5.42045 2.8039 5.47737 2.61636L5.47363 2.61522C5.53166 2.424 5.75283 2.34253 5.92465 2.30231C7.06221 2.03313 11.3637 1.10177 13.732 1.82058C13.807 1.84335 13.8806 1.86856 13.9527 1.89609Z" fill="#0AA4ED"/>
<path d="M2.21225 4.47194C2.38348 4.40628 2.56563 4.51685 2.69038 4.61561C3.51841 5.26785 6.58661 7.78245 7.38083 9.85349C7.95136 11.3412 7.20204 13.0119 5.70707 13.5852C4.2121 14.1585 2.53787 13.4172 1.96733 11.9295C1.17311 9.85847 1.77319 5.93713 1.95403 4.90175C1.9795 4.74162 2.04557 4.53962 2.2135 4.47522L2.21225 4.47194Z" fill="#33C4FF"/>
<path d="M7.26942 9.58905C7.60011 10.9755 6.856 12.4285 5.48246 12.9553C4.05862 13.5013 2.47217 12.8549 1.83152 11.5069C1.24977 9.36453 1.78583 5.87034 1.95501 4.90175C1.98048 4.74162 2.04654 4.53962 2.21448 4.47522L2.21322 4.47194C2.38445 4.40628 2.56661 4.51685 2.69136 4.61561C3.48444 5.24033 6.33257 7.5735 7.26942 9.58905Z" fill="#0AA4ED"/>
<path d="M5.4776 8.76961C5.7779 9.83176 5.41248 10.4616 4.70314 10.7597C3.96782 11.0687 3.12222 10.8793 2.65495 9.82408C2.15205 8.17787 2.1474 5.59731 2.15741 4.88343C2.1577 4.76524 2.17669 4.61852 2.26342 4.58208L2.26245 4.57954C2.35088 4.54238 2.46039 4.63805 2.53736 4.72083C3.02644 5.24474 4.79051 7.19341 5.4776 8.76961Z" fill="#CFF7FF"/>
<path d="M11.5588 2.52303C12.7237 2.95598 13.0538 3.70489 12.8539 4.545C12.6467 5.41587 11.9132 6.05588 10.6438 5.77872C8.81338 5.14161 6.46434 3.43327 5.82201 2.95044C5.71475 2.87175 5.59398 2.75718 5.61842 2.65447L5.61546 2.65366C5.64038 2.54893 5.80005 2.51325 5.92639 2.49848C6.72732 2.40331 9.6698 2.09916 11.5588 2.52303Z" fill="#CFF7FF"/>
<path d="M9.45006 8.67358C9.5736 8.59398 9.73364 8.64929 9.8469 8.70504C10.5982 9.07258 13.3974 10.5103 14.3473 11.9844C15.0297 13.0433 14.7085 14.465 13.6299 15.1601C12.5514 15.8551 11.124 15.5601 10.4416 14.5012C9.49173 13.0271 9.33904 9.88396 9.31625 9.0503C9.31077 8.92179 9.3304 8.75399 9.45156 8.67591L9.45006 8.67358Z" fill="#33C4FF"/>
<path d="M14.1116 11.663C14.6877 12.7053 14.3499 14.0404 13.3155 14.7069C12.3364 15.3379 11.0698 15.153 10.3341 14.3213C9.48001 12.7854 9.33815 9.85144 9.31625 9.0503C9.31077 8.92179 9.3304 8.75399 9.45156 8.67591L9.45006 8.67358C9.5736 8.59398 9.73364 8.64929 9.8469 8.70504C10.5434 9.04579 13.0001 10.3064 14.1116 11.663Z" fill="#0AA4ED"/>
<path d="M12.6174 11.4014C13.0058 12.1491 12.8188 12.684 12.3185 13.0273C11.7999 13.3832 11.1225 13.383 10.607 12.6686C9.97621 11.5159 9.58914 9.57724 9.49074 9.03903C9.47339 8.95015 9.46618 8.83669 9.52735 8.79472L9.52622 8.79297C9.58859 8.75017 9.68689 8.80365 9.75829 8.85292C10.2116 9.16442 11.8556 10.3323 12.6174 11.4014Z" fill="#CFF7FF"/>
<path d="M5.4733 8.76074C4.93385 9.36282 4.15031 9.74165 3.27829 9.74165C3.04786 9.74165 2.8236 9.7152 2.6084 9.66516C2.62338 9.71924 2.63885 9.77246 2.65482 9.82473C3.12209 10.8799 3.96769 11.0693 4.703 10.7604C5.41234 10.4623 5.77777 9.83241 5.47747 8.77026C5.47608 8.76709 5.47469 8.76392 5.4733 8.76074Z" fill="#A3E3FF"/>
<path d="M10.5713 5.75357C11.3755 5.2275 11.9068 4.31888 11.9068 3.28616C11.9068 3.06406 11.8823 2.8477 11.8357 2.63965C12.7753 3.08343 13.0365 3.77618 12.8535 4.54539C12.6463 5.41627 11.9128 6.05627 10.6434 5.77911C10.6194 5.77078 10.5954 5.76226 10.5713 5.75357Z" fill="#A3E3FF"/>
<path d="M12.7287 11.6494C12.288 12.2945 11.5977 12.7555 10.7969 12.8932C11.2812 13.3781 11.8617 13.341 12.3188 13.0273C12.762 12.7233 12.9593 12.2689 12.7287 11.6494Z" fill="#A3E3FF"/>
</svg>
