<svg width="17" height="18" viewBox="0 0 17 18" fill="none" xmlns="http://www.w3.org/2000/svg">
<path d="M8.69043 0.353516C8.47043 0.353516 8.25043 0.423516 8.06043 0.573516L7.59043 0.953516C7.38043 1.12352 7.24043 1.37352 7.22043 1.65352C7.01043 1.56352 6.79043 1.47352 6.54043 1.40352C6.50043 1.38352 6.45043 1.36352 6.40043 1.35352C6.20043 1.29352 5.98043 1.24352 5.76043 1.20352C5.74043 1.20352 5.72043 1.20352 5.71043 1.20352C5.33043 1.15352 4.95043 1.13352 4.58043 1.13352C2.43043 1.13352 1.21043 1.93352 1.08043 2.02352C0.750433 2.25352 0.590434 2.67352 0.670434 3.07352C0.670434 3.07352 0.670434 3.11352 0.700433 3.19352C0.700433 3.22352 0.710434 3.22352 0.720434 3.26352C0.720434 3.27352 0.720434 3.28352 0.730434 3.29352C0.740434 3.32352 0.750434 3.36352 0.770433 3.40352C0.780433 3.43352 0.790434 3.45352 0.800434 3.48352C0.910434 3.73352 1.12043 4.08352 1.49043 4.44352C1.45043 4.48352 1.41043 4.53352 1.38043 4.58352C1.36043 4.61352 1.33043 4.65352 1.30043 4.69352C0.930434 5.19352 0.640433 5.75352 0.440434 6.35352C0.160434 7.25352 0.0204335 8.17352 0.0604335 9.09352C0.140434 10.7435 0.760433 11.9235 1.12043 12.4835C1.94043 13.7335 4.36043 15.7535 5.60043 16.5335C5.76043 16.6335 5.91043 16.7235 6.07043 16.8135C6.26043 16.9235 6.41043 17.0035 6.56043 17.0735L6.64043 17.1135C7.02043 17.2935 7.39043 17.4235 7.76043 17.5035L7.86043 17.5235C8.04043 17.5535 8.21043 17.5835 8.38043 17.5935H8.52043H8.65043C8.82043 17.5935 8.98043 17.5835 9.14043 17.5635C9.16043 17.5635 9.19043 17.5635 9.21043 17.5635C9.24043 17.5635 9.27043 17.5535 9.30043 17.5435C9.75043 17.4635 10.1904 17.3035 10.6204 17.0735C10.8004 16.9735 11.0104 16.8535 11.2304 16.7135L11.2804 16.6835C11.4904 16.5535 11.7104 16.4035 11.9504 16.2435L12.0404 16.1835C12.2704 16.0235 12.5004 15.8535 12.7404 15.6735L12.8504 15.5935C13.0904 15.4135 13.3304 15.2235 13.5604 15.0235L13.6804 14.9235C13.9204 14.7235 14.1504 14.5035 14.3804 14.2935L14.4604 14.2135C14.7304 13.9435 14.9504 13.7235 15.1504 13.4935L15.2104 13.4235C15.4704 13.1235 15.6604 12.8735 15.8304 12.6335C15.8304 12.6235 15.8704 12.5735 15.8804 12.5635C16.0804 12.2635 16.2404 11.9935 16.3604 11.7435C16.3604 11.7335 16.3704 11.7235 16.3804 11.7035C16.3804 11.6935 16.3904 11.6735 16.4004 11.6635C16.4704 11.5135 16.5304 11.3635 16.5804 11.2235C16.8904 10.3135 17.0204 9.28352 16.9704 8.23352C16.9204 7.05352 16.6204 5.97352 16.1404 5.10352C16.1704 5.03352 16.1904 4.96352 16.2004 4.87352C16.2004 4.82352 16.2104 4.75352 16.2104 4.69352C16.2104 4.67352 16.2104 4.65352 16.2104 4.63352C16.2104 4.57352 16.2004 4.47352 16.1704 4.36352L16.1504 4.30352C16.1504 4.30352 16.1404 4.25352 16.1304 4.23352C16.1304 4.21352 16.1204 4.19352 16.1104 4.17352C16.0904 4.12352 16.0704 4.06352 16.0504 4.00352C15.9804 3.83352 15.9104 3.70352 15.8304 3.57352C15.8304 3.57352 15.8004 3.53352 15.8004 3.52352C15.7104 3.38352 15.6004 3.24352 15.4804 3.10352C15.4804 3.10352 15.4404 3.06352 15.4404 3.05352C15.3004 2.90352 15.1404 2.76352 14.9804 2.64352C14.9704 2.64352 14.9304 2.60352 14.9204 2.60352C14.7304 2.46352 14.5304 2.34352 14.3204 2.24352C14.3104 2.24352 14.2604 2.21352 14.2504 2.21352C14.0004 2.09352 13.7504 2.00352 13.4804 1.91352C13.4604 1.91352 13.4304 1.89352 13.4104 1.89352C13.1104 1.80352 12.7904 1.73352 12.4504 1.68352C12.4304 1.68352 12.4104 1.68352 12.3904 1.68352C12.1604 1.66352 11.9504 1.65352 11.7504 1.65352C11.6604 1.65352 11.5704 1.65352 11.4804 1.65352C11.4104 1.65352 11.3404 1.65352 11.2704 1.65352C11.1904 1.65352 11.1504 1.65352 11.1004 1.65352C11.0404 1.65352 10.9904 1.66352 10.9404 1.68352C10.6504 1.71352 10.3904 1.77352 10.1504 1.83352C10.1804 1.55352 10.0804 1.27352 9.88043 1.05352C9.83043 0.993516 9.77043 0.953516 9.71043 0.903516L9.33043 0.583516C9.14043 0.423516 8.92043 0.353516 8.69043 0.353516Z" fill="white"/>
<path d="M15.1993 4.77758C15.184 4.87729 13.6247 5.55796 11.8718 5.28829C10.119 5.01863 8.85175 3.80103 8.85175 3.80103C8.85175 3.80103 9.74612 2.48391 12.2914 2.72648C15.0357 3.14671 15.2147 4.67786 15.1993 4.77758Z" fill="#3F540B"/>
<path d="M15.1997 4.75512C14.8845 4.64965 14.3197 4.42934 13.3754 3.97204C12.6561 3.62369 11.8614 3.14984 11.1846 2.71943C11.5126 2.68941 11.8804 2.68793 12.2912 2.72708C14.9073 3.12769 15.1921 4.53792 15.1997 4.75512Z" fill="#5E7D08"/>
<path d="M11.7588 3.07617C12.288 3.39778 12.8519 3.71808 13.3758 3.9718C14.3201 4.4291 14.8849 4.64941 15.2001 4.75488C15.1989 4.71835 15.1897 4.64806 15.163 4.55451C14.7715 4.42608 14.1546 4.19685 13.2204 3.78899C12.7476 3.58261 12.2471 3.33449 11.7588 3.07617Z" fill="#72A306"/>
<path d="M8.4738 3.89732C8.4738 3.89732 6.1183 5.12403 4.37416 4.80289C1.94551 4.35572 1.64941 2.90853 1.64941 2.90853C1.64941 2.90853 3.0486 1.94398 5.58567 2.26135C7.60525 2.62485 8.4738 3.89732 8.4738 3.89732Z" fill="#475505"/>
<path d="M6.12974 2.38752C5.42463 2.74953 3.85248 3.41374 2.26296 3.12106C2.05433 3.08265 1.85824 3.03973 1.67395 2.99312C1.6557 2.93925 1.64941 2.90853 1.64941 2.90853C1.64941 2.90853 3.0486 1.94398 5.58567 2.26135C5.77731 2.29585 5.95858 2.33852 6.12974 2.38752Z" fill="#56730A"/>
<path d="M1.64941 2.9082C1.64941 2.9082 1.66263 2.97279 1.70638 3.0789C2.29933 3.29401 3.0793 3.44479 4.10082 3.44479C5.7926 3.44479 7.33972 3.62968 8.39759 3.79799C8.35486 3.74591 8.29384 3.67582 8.21373 3.59386C7.15344 3.43381 5.66989 3.26901 4.05606 3.26901C3.03148 3.26901 2.2469 3.12079 1.64941 2.9082Z" fill="#72A306"/>
<path d="M5.98715 3.45618C7.63745 3.45618 8.49396 3.66047 8.79281 3.95325C9.10575 3.7033 9.35519 3.42188 10.8127 3.42188C11.9189 3.42188 12.8881 3.45618 14.4158 4.6504C15.9435 5.84462 16.3474 8.82963 15.6275 10.9544C14.9075 13.0791 11.6589 15.4321 10.1312 16.275C8.60354 17.1178 7.33924 16.5208 6.14517 15.7657C4.9511 15.0107 2.6679 13.0791 1.96551 12.008C1.26312 10.9368 0.648799 9.02279 1.40387 6.72245C2.15894 4.42212 4.17471 3.45618 5.98715 3.45618Z" fill="#F58849"/>
<path d="M8.21399 2.48612C8.21422 2.74834 8.39573 3.63704 8.48645 4.04862H8.86815L8.79542 2.48612L9.14089 1.81288L8.68633 1.43164L8.21399 1.81288C8.2139 1.92804 8.21377 2.2239 8.21399 2.48612Z" fill="#8B5D48"/>
<path d="M12.0176 4.32902C10.9365 3.84475 9.73443 3.97164 9.26855 4.09562C9.5482 4.39076 10.4905 5.39638 10.7813 6.23328C11.1949 7.42349 11.4248 8.53542 11.2685 9.99153C10.9283 13.1618 8.75181 14.2632 9.66078 14.4684C10.2785 14.6079 11.4121 14.6723 12.9497 13.2745C14.4872 11.8768 14.9065 9.73349 14.9065 8.10275C14.9065 6.472 13.369 4.93436 12.0176 4.32902Z" fill="#F2733B"/>
<path d="M8.3357 3.62853C6.77328 3.14856 5.11621 3.48427 4.56152 3.6543C4.90516 3.60218 6.27853 3.45871 7.573 3.73354C8.86747 4.00837 9.82407 4.82194 10.2906 5.31066C10.098 4.94783 9.4161 3.96043 8.3357 3.62853Z" fill="#FFF0D7"/>
<path d="M5.7746 4.46905C4.65641 4.28291 3.44494 5.12112 2.69941 6.56573C2.23343 7.77768 2.69941 10.2926 3.63131 11.9699C4.56321 13.6473 7.31213 15.2314 8.05761 15.1382C8.80309 15.0451 8.84969 13.4143 8.98946 11.504C9.12924 9.59371 8.89628 7.7766 8.38376 6.28563C7.87124 4.79467 6.89279 4.65519 5.7746 4.46905Z" fill="#F2733B"/>
<path d="M15.4714 11.339C14.5239 13.3561 11.5672 15.4828 10.1312 16.2752C8.60346 17.118 7.33915 16.521 6.14509 15.7659C5.60251 15.4228 4.50302 13.5835 3.76118 12.9456C2.44138 11.3033 2.29689 10.1409 2.33787 8.47844C2.38494 6.56847 3.58444 5.72687 4.32993 5.77347C5.07541 5.82006 6.33341 7.63731 6.47319 9.40783C6.61297 11.1784 6.89252 12.9489 7.91756 13.7409C8.9426 14.533 10.2006 14.4864 11.0859 14.1137C11.9711 13.7409 14.5337 11.6909 14.2542 9.40783C13.9746 7.12479 13.2291 6.42562 12.0177 5.77347C10.8063 5.12131 9.64149 4.18945 11.0859 4.18945C12.5302 4.18945 14.3473 5.58674 14.8599 6.70497C15.3337 7.73872 15.8075 9.68833 15.4714 11.339Z" fill="#ED603F"/>
<path d="M8.73926 3.96447C10.515 3.56936 12.3256 3.63332 13.519 4.54261C14.9543 5.63632 15.6393 6.4669 15.6393 8.39019C15.6393 9.95774 15.3443 11.1322 14.7814 12.3941C15.1627 11.9025 15.4619 11.4019 15.6275 10.9133C16.3474 8.78861 15.9435 5.80361 14.4158 4.60938C12.8881 3.41516 11.9189 3.38086 10.8127 3.38086C9.4451 3.38086 9.14112 3.62863 8.8503 3.86569C8.83118 3.88127 8.81212 3.89681 8.79281 3.91223C8.79132 3.91077 8.78982 3.90932 8.7883 3.90786L8.73926 3.96447Z" fill="#FFE2CD"/>
<path d="M3.28048 4.24023C2.46375 4.76958 1.77858 5.58251 1.40387 6.72406C0.648799 9.02439 1.26312 10.9384 1.96551 12.0096C2.6679 13.0807 4.9511 15.0123 6.14517 15.7674C7.04761 16.338 7.99017 16.8184 9.05624 16.6552C8.32253 16.5436 7.6426 16.1533 6.98404 15.712C5.78997 14.9119 3.50677 12.865 2.80438 11.7299C2.10199 10.5949 1.48767 8.56664 2.24274 6.12904C2.47963 5.36427 2.84061 4.73869 3.28048 4.24023Z" fill="#FFAFA5"/>
<path d="M10.2957 5.33398C10.3013 5.33773 10.3077 5.34377 10.3148 5.3521C10.6773 5.70996 11.3678 7.15817 11.529 8.38243C11.8074 10.4964 11.3874 11.6925 10.7556 13.2973C10.2651 14.5432 9.34148 15.5275 8.67975 16.429C9.65292 15.0658 11.0972 11.8772 11.0972 10.1135C11.0972 7.1917 10.4914 5.55994 10.3148 5.3521C10.3083 5.34571 10.3019 5.33967 10.2957 5.33398Z" fill="#A7391B"/>
<path d="M9.14966 1.8125L8.82568 2.44385L8.81738 1.95903L9.14966 1.8125Z" fill="#56413B"/>
<path d="M8.36255 1.69336L8.40649 1.95508L8.31738 3.21924C8.26001 2.91016 8.21387 2.61914 8.21387 2.48682V1.81348L8.36255 1.69336Z" fill="#B1836E"/>
</svg>
