<svg width="18" height="18" viewBox="0 0 18 18" fill="none" xmlns="http://www.w3.org/2000/svg">
<path d="M9.08953 0.424805C4.49953 0.424805 0.769531 4.1548 0.769531 8.7448C0.769531 9.9148 1.00953 11.0548 1.48953 12.1248C1.47953 12.1648 1.46953 12.2148 1.45953 12.2548C1.43953 12.3448 1.42953 12.4248 1.41953 12.5048V12.5848C1.38953 12.6648 1.37953 12.7448 1.37953 12.8148V12.9248V12.9448C1.37953 12.9748 1.37953 13.0048 1.37953 13.0348C1.37953 14.4948 2.58953 15.6848 4.06953 15.6848C4.19953 15.6848 4.32953 15.6748 4.45953 15.6548C5.24953 16.1848 6.10953 16.5748 7.01953 16.8048C7.57953 17.3648 8.32953 17.6848 9.12953 17.6848C9.92953 17.6848 10.6995 17.3548 11.2695 16.7848C14.9095 15.8048 17.4195 12.5548 17.4195 8.7548C17.4195 4.1548 13.6795 0.424805 9.08953 0.424805Z" fill="white"/>
<circle cx="9.10059" cy="8.75" r="7.32324" fill="#ED5509"/>
<circle cx="9.10056" cy="8.74899" r="6.4863" fill="#FB8A27"/>
<path d="M2.90918 10.6162C4.17715 12.0659 6.48123 13.0352 9.1129 13.0352C11.7451 13.0352 14.0494 12.0654 15.3174 10.6152C14.5945 13.2739 12.0906 15.2354 9.11315 15.2354C6.13569 15.2354 3.63233 13.2744 2.90918 10.6162Z" fill="#F36B13"/>
<ellipse cx="9.10108" cy="11.8005" rx="3.76124" ry="3.4362" fill="#F77A1B"/>
<path fill-rule="evenodd" clip-rule="evenodd" d="M3.79199 5.02024C4.96575 3.35242 6.90564 2.2627 9.10006 2.2627C11.2153 2.2627 13.0941 3.27522 14.2781 4.84204C13.5552 6.53718 11.4627 7.7627 8.99413 7.7627C6.61291 7.7627 4.58168 6.6224 3.79199 5.02024Z" fill="#FDAD49"/>
<path fill-rule="evenodd" clip-rule="evenodd" d="M4.57715 4.09953C5.74555 2.96279 7.34093 2.2627 9.09982 2.2627C10.8039 2.2627 12.3545 2.91985 13.5121 3.99457C12.5044 5.06511 10.856 5.7627 8.99358 5.7627C7.1927 5.7627 5.59201 5.11048 4.57715 4.09953Z" fill="#FEC564"/>
<path d="M4.44544 7.0639C5.45102 7.00344 6.30008 6.45998 6.72914 5.70121C6.77119 5.62685 6.7924 5.54481 6.79794 5.46184C6.80697 5.32669 6.64693 5.23784 6.51604 5.30534L6.45919 5.33466C6.35646 5.38764 6.26727 5.45916 6.18859 5.53903C5.67093 6.06447 4.89249 6.44049 3.99516 6.54593L3.66594 6.62618C3.45012 6.67879 3.44628 6.95412 3.66063 7.00678L3.7072 7.01822C3.9439 7.06268 4.19155 7.07916 4.44544 7.0639Z" fill="#602004"/>
<path d="M13.8959 7.0639C12.8903 7.00344 12.0412 6.45998 11.6122 5.70121C11.5701 5.62685 11.5489 5.54481 11.5434 5.46184C11.5343 5.32669 11.6944 5.23784 11.8253 5.30534L11.8821 5.33466C11.9849 5.38764 12.074 5.45916 12.1527 5.53903C12.6704 6.06447 13.4488 6.44049 14.3462 6.54593L14.6754 6.62618C14.8912 6.67879 14.895 6.95412 14.6807 7.00678L14.6341 7.01822C14.3974 7.06268 14.1498 7.07916 13.8959 7.0639Z" fill="#602004"/>
<path d="M4.06097 9.08496C4.16767 9.0846 4.24391 9.18104 4.29137 9.25944C4.60705 9.77811 5.75659 11.7524 5.76089 13.0256C5.76398 13.9401 5.01142 14.684 4.07989 14.6871C3.14837 14.6903 2.3908 13.9515 2.38771 13.0369C2.38341 11.7638 3.51959 9.78178 3.83177 9.26301C3.87869 9.18227 3.95634 9.08733 4.06098 9.08698L4.06097 9.08496Z" fill="#33C4FF"/>
<path d="M5.74246 12.7368C5.68705 13.5996 4.95825 14.284 4.06483 14.287C3.2192 14.2898 2.51692 13.6813 2.39229 12.8849C2.47079 11.6114 3.53177 9.76155 3.83177 9.26301C3.87869 9.18227 3.95634 9.08733 4.06098 9.08698L4.06097 9.08496C4.16767 9.0846 4.24391 9.18104 4.29137 9.25944C4.58404 9.7403 5.59342 11.4723 5.74246 12.7368Z" fill="#0AA4ED"/>
<path d="M4.93135 11.993C4.87637 12.6023 4.55281 12.8562 4.11253 12.8705C3.65613 12.8853 3.24192 12.6202 3.20609 11.9816C3.27124 11.0299 3.7929 9.69279 3.94326 9.32513C3.96742 9.26399 4.00739 9.19177 4.06122 9.19003L4.06121 9.18852C4.1161 9.18675 4.1553 9.25791 4.17969 9.31597C4.3351 9.68382 4.88367 11.0412 4.93135 11.993Z" fill="#CFF7FF"/>
<path d="M4.90221 12.1855C4.38039 12.4077 3.77787 12.4196 3.23422 12.1905C3.3407 12.6765 3.71023 12.8809 4.11253 12.8679C4.50251 12.8553 4.80091 12.6546 4.90221 12.1855Z" fill="#A3E3FF"/>
<ellipse cx="7.02197" cy="9.4082" rx="0.836426" ry="1.04785" fill="#762806"/>
<ellipse cx="11.2505" cy="9.4082" rx="0.836426" ry="1.04785" fill="#762806"/>
<path d="M11.4229 13.2236C11.4229 13.804 10.3803 14.2744 9.09424 14.2744C7.80818 14.2744 6.76562 13.804 6.76562 13.2236C6.76562 12.6433 7.26555 12.1729 9.09424 12.1729C11.0047 12.1729 11.4229 12.6433 11.4229 13.2236Z" fill="#762806"/>
<path d="M7.13965 12.7002C7.13965 12.7002 7.13965 13.2129 9.1333 13.2129C11.127 13.2129 11.127 12.7002 11.127 12.7002V14.6929C11.127 15.7939 10.2344 16.6865 9.1333 16.6865C8.03224 16.6865 7.13965 15.7939 7.13965 14.6929V12.7002Z" fill="#E82B73"/>
<path fill-rule="evenodd" clip-rule="evenodd" d="M7.46973 13.2725C7.74077 13.3733 8.23437 13.4652 9.1333 13.4652C10.0322 13.4652 10.5258 13.3733 10.7969 13.2725V14.601C10.7969 15.5198 10.0521 16.2646 9.1333 16.2646C8.21453 16.2646 7.46973 15.5198 7.46973 14.601V13.2725Z" fill="#FC5297"/>
<path fill-rule="evenodd" clip-rule="evenodd" d="M7.70801 13.6201C8.00322 13.6739 8.45177 13.7147 9.1333 13.7147C9.81483 13.7147 10.2634 13.6739 10.5586 13.6201V14.3234C10.5586 15.1106 9.92047 15.7487 9.1333 15.7487C8.34613 15.7487 7.70801 15.1106 7.70801 14.3234V13.6201Z" fill="#FC7ABE"/>
<path d="M8.99707 13.0752H9.26953L9.13236 14.7687L8.99707 13.0752Z" fill="#762806"/>
</svg>
