<svg width="32" height="32" viewBox="0 0 32 32" fill="none" xmlns="http://www.w3.org/2000/svg">
<g clip-path="url(#clip0_347_14409)">
<path d="M27.6664 20.6665L13.6665 20.6665C12.3832 20.6665 11.3332 19.6165 11.3332 18.3332L11.3332 4.33331C11.3332 3.04999 10.2832 2 8.99992 2L4.33331 2C3.04999 2 2 3.04999 2 4.33331L2 14.0632C2 15.2999 2.48999 16.4898 3.36498 17.3648L14.6349 28.6347C15.5099 29.5097 16.6998 29.9997 17.9365 29.9997L27.6664 29.9997C28.9497 29.9997 29.9997 28.9497 29.9997 27.6664L29.9997 22.9998C29.9997 21.7165 28.9497 20.6665 27.6664 20.6665Z" fill="black" style="fill:black;fill-opacity:1;"/>
<path d="M27.6667 2L18.8118 2C17.7735 2 17.2485 3.25999 17.9835 3.99498L28.005 14.0165C28.74 14.7515 30 14.2265 30 13.1882L30 4.33331C30 3.04999 28.95 2 27.6667 2Z" fill="black" style="fill:black;fill-opacity:1;"/>
</g>
<defs>
<clipPath id="clip0_347_14409">
<rect width="32" height="32" fill="white" style="fill:white;fill-opacity:1;"/>
</clipPath>
</defs>
</svg>
